# xmcd
#
# Track frame offsets:
#	225
#	20175
#	39915
#	58151
#	78230
#	103813
#	125488
#	139967
#	160852
#	174694
#	203275
#	217440
#	229469
#	242273
#	261537
#	291520
#
# Disc length: 4709 seconds
#
# Revision: 1
# Processed by: cddbd v1.5.2PL0 Copyright (c) Steve Scherf et al.
# Submitted via: audiograbber 1.83.01
#
DISCID=f8126210
DTITLE=Various Artist - Berenstark - Bear out of hell
DYEAR=1998
DGENRE=Metal
TTITLE0=Muff - Be
TTITLE1=Mindwise - I know
TTITLE2=1st Issue - Kein Gedanke
TTITLE3=Final Cry - Bluebeard's Chamber
TTITLE4=Junkie Smith - Nightmare
TTITLE5=Carpathian Dream - No redemption
TTITLE6=A colour cold black - The last chapter
TTITLE7=Operation Counterstrike - Interlude
TTITLE8=Freakquency - W.A.T.S.
TTITLE9=Ordeal - Wreckage
TTITLE10=Seven rules - B.O.T.
TTITLE11=Mary's forbidden dreams - Wir sind keine Hip-Hopper
TTITLE12=Mystica Solitudinis - Under the surface
TTITLE13=Vollmilch - Zeit vor jetzt
TTITLE14=Fürst Black - Kreis der Gewalt
TTITLE15=Bandinfos - Daten-CD
EXTD=
EXTT0=
EXTT1=
EXTT2=
EXTT3=
EXTT4=
EXTT5=
EXTT6=
EXTT7=
EXTT8=
EXTT9=
EXTT10=
EXTT11=
EXTT12=
EXTT13=
EXTT14=
EXTT15=
PLAYORDER=
